<svg xmlns="http://www.w3.org/2000/svg" width="370.32432432432427" height="136.53402891719372" viewBox="0 0 370.32432432432427 136.53402891719372" class="css-1j8o68f"><defs id="SvgjsDefs3665"></defs><g id="SvgjsG3666" featurekey="symbolFeature-0" transform="matrix(1.609938214942287,0,0,1.609938214942287,-38.247302123252496,-10.369612785555926)" fill="#111111"><path xmlns="http://www.w3.org/2000/svg" d="M59.821,19.53c-3.634-0.64-7.206,1.535-8.318,5.062c-0.278,0.879-0.367,1.787-0.31,2.69l2.412-3.756l4.99,3.205l5.926,0.242  l-0.185,4.462c0.566-0.706,1.015-1.502,1.292-2.383c1.114-3.526-0.563-7.362-3.902-8.921l0.317-0.68l-0.337,0.67  c-0.27-0.136-0.568-0.255-0.911-0.363c-0.352-0.111-0.662-0.185-0.947-0.224l0.103-0.743L59.821,19.53z"></path><rect xmlns="http://www.w3.org/2000/svg" x="58.229" y="28.315" transform="matrix(-0.9992 -0.0407 0.0407 -0.9992 118.3015 100.3368)" width="3.886" height="41.298"></rect><polygon xmlns="http://www.w3.org/2000/svg" points="58.947,78.797 61.016,71.165 57.512,71.022 "></polygon><path xmlns="http://www.w3.org/2000/svg" d="M64.304,13.693l-0.018-0.009c-0.425-0.212-0.882-0.394-1.395-0.555c-0.522-0.167-1-0.281-1.462-0.35l-0.064-0.01  c-5.506-0.942-10.921,2.359-12.608,7.708c-0.967,3.057-0.589,6.287,1.007,9.032l0.229-0.358c-0.45-1.65-0.438-3.373,0.081-5.012  c1.336-4.232,5.626-6.847,9.982-6.091v-0.001c0.007,0.001,0.015,0.003,0.022,0.004c0.002,0.001,0.003,0.001,0.005,0.001  c0.362,0.053,0.744,0.142,1.166,0.275c0.413,0.131,0.776,0.276,1.113,0.444l0-0.001c0.004,0.002,0.009,0.005,0.013,0.007  c0.002,0.001,0.004,0.002,0.006,0.003c4.004,1.883,6.016,6.487,4.678,10.722c-0.518,1.642-1.497,3.062-2.815,4.152l-0.018,0.426  c2.848-1.322,5.06-3.798,6.014-6.817C71.936,21.899,69.383,16.065,64.304,13.693z"></path><polygon xmlns="http://www.w3.org/2000/svg" points="28.402,69.149 34.042,63.611 31.092,61.715 "></polygon><polygon xmlns="http://www.w3.org/2000/svg" points="44.488,50.446 49.789,52.123 50.611,49.521 52.042,49.973 51.219,52.575 56.511,54.248 57.499,30.202 "></polygon><path xmlns="http://www.w3.org/2000/svg" d="M64.159,11.987l1.587-5.025l-1.65-0.521l-1.588,5.023c0.271,0.065,0.549,0.143,0.836,0.234  C63.628,11.789,63.898,11.884,64.159,11.987z"></path><rect xmlns="http://www.w3.org/2000/svg" x="23.884" y="42.082" transform="matrix(-0.5403 0.8415 -0.8415 -0.5403 105.6417 30.3373)" width="41.3" height="3.886"></rect><path xmlns="http://www.w3.org/2000/svg" d="M25.208,74.968l-1.451,0.377c4.013,15.419,15.226,15.903,16.59,15.903c0.082,0,0.128-0.002,0.135-0.002l-0.075-1.498  C39.957,89.768,29.146,90.089,25.208,74.968z"></path></g><g id="SvgjsG3667" featurekey="nameFeature-0" transform="matrix(2.3631332772351072,0,0,2.3631332772351072,96,7.060281540983581)" fill="#111111"><path d="M19.28 37.84 l0.88 0.88 c-1.8 0.8 -3.76 1.28 -5.88 1.28 c-7.88 0 -14.28 -6.44 -14.28 -14.32 s6.4 -14.28 14.28 -14.28 c2.12 0 4.08 0.44 5.88 1.24 l-0.88 0.88 c-1.52 -0.6 -3.2 -0.96 -5 -0.96 c-7.24 0 -13.12 5.88 -13.12 13.12 s5.88 13.12 13.12 13.12 c1.8 0 3.48 -0.32 5 -0.96 z M38.595 40 l-1.12 -4.52 l-10.96 0 l-1.12 4.52 l-1.2 0 l7.08 -28.6 l1.44 0 l7.08 28.6 l-1.2 0 z M26.795 34.28 l10.4 0 l-5.2 -20.88 z M49.23 11.399999999999999 l0 1.16 l-4.08 0 l0 27.44 l-1.16 0 l0 -27.44 l-4.16 0 l0 -1.16 l9.4 0 z M63.665 40 l-1.12 -4.52 l-10.96 0 l-1.12 4.52 l-1.2 0 l7.08 -28.6 l1.44 0 l7.08 28.6 l-1.2 0 z M51.865 34.28 l10.4 0 l-5.2 -20.88 z M70.26 11.399999999999999 c5.28 0 9.56 4.36 9.56 9.76 c0 5.36 -4.28 9.76 -9.56 9.76 l-0.2 0 l0 9.08 l-1.16 0 l0 -28.6 l1.36 0 z M70.26 29.759999999999998 c4.64 0 8.4 -3.88 8.4 -8.6 c0 -4.76 -3.76 -8.6 -8.4 -8.6 l-0.2 0 l0 17.2 l0.2 0 z M89.89500000000001 40.56 c-3.32 0 -6.04 -2.72 -6.04 -6.08 l0 -23.08 l1.16 0 l0 23.08 c0 2.72 2.2 4.88 4.88 4.88 s4.88 -2.16 4.88 -4.88 l0 -23.08 l1.16 0 l0 23.08 c0 3.36 -2.72 6.08 -6.04 6.08 z M101.13 38.8 l4.72 0 l0 1.2 l-5.88 0 l0 -28.6 l1.16 0 l0 27.4 z M116.08500000000001 11.399999999999999 l0 1.16 l-4.08 0 l0 27.44 l-1.16 0 l0 -27.44 l-4.16 0 l0 -1.16 l9.4 0 z"></path></g></svg>